<?xml version="1.0" encoding="UTF-8"?>
<svg id="Layer_1" xmlns="http://www.w3.org/2000/svg" xmlns:xlink="http://www.w3.org/1999/xlink" viewBox="0 0 474.69 287.23">
  <defs>
    <style>
      .cls-1, .cls-2, .cls-3, .cls-4, .cls-5 {
        fill: none;
      }

      .cls-6 {
        fill: #fdbe11;
      }

      .cls-2 {
        stroke: #16498a;
      }

      .cls-2, .cls-3, .cls-4, .cls-5 {
        stroke-miterlimit: 8;
      }

      .cls-7 {
        fill: #e78424;
      }

      .cls-7, .cls-8, .cls-9 {
        stroke-miterlimit: 10;
        stroke-width: 2px;
      }

      .cls-7, .cls-9 {
        stroke: #000001;
      }

      .cls-3 {
        stroke-width: 3px;
      }

      .cls-3, .cls-5 {
        stroke: #21409a;
      }

      .cls-10 {
        fill: #000001;
      }

      .cls-11 {
        fill: #ed1c24;
      }

      .cls-8 {
        fill: #442d7c;
        stroke: #452d7c;
      }

      .cls-4 {
        stroke: #2b3990;
        stroke-width: .5px;
      }

      .cls-12 {
        fill: #231f20;
        font-size: 14px;
        letter-spacing: 0em;
      }

      .cls-12, .cls-13, .cls-14 {
        font-family: ArialMT, Arial;
      }

      .cls-15 {
        fill: #3d6cb4;
      }

      .cls-13 {
        font-size: 11.5px;
      }

      .cls-13, .cls-14 {
        fill: #f1f2f2;
      }

      .cls-9 {
        fill: #ec4924;
        fill-rule: evenodd;
      }

      .cls-16 {
        fill: #21409a;
      }

      .cls-17 {
        letter-spacing: 0em;
      }

      .cls-18 {
        letter-spacing: 0em;
      }

      .cls-19 {
        fill: #82d4f1;
      }

      .cls-20 {
        clip-path: url(#clippath);
      }

      .cls-14 {
        font-size: 15px;
        letter-spacing: 0em;
      }

      .cls-5 {
        stroke-width: .75px;
      }
    </style>
    <clipPath id="clippath">
      <rect class="cls-1" x="139.77" y="198.46" width="43.2" height="36.04"/>
    </clipPath>
  </defs>
  <rect class="cls-19" x="3.73" y="3.12" width="468" height="280.8" rx="18" ry="18"/>
  <path class="cls-9" d="M128.75,143.43l-12.16,5.44c-.25.11-.52-.07-.52-.34v-10.88c0-.27.28-.45.52-.34l12.16,5.44c.29.13.29.55,0,.68Z"/>
  <rect class="cls-8" x="132.57" y="114.29" width="57.6" height="57.6" rx="9.6" ry="9.6"/>
  <circle class="cls-7" cx="239.08" cy="143.09" r="28.8"/>
  <path class="cls-9" d="M284.16,143.43l-12.16,5.44c-.25.11-.52-.07-.52-.34v-10.88c0-.27.28-.45.52-.34l12.16,5.44c.29.13.29.55,0,.68Z"/>
  <rect class="cls-8" x="287.98" y="114.29" width="57.6" height="57.6" rx="9.6" ry="9.6"/>
  <path class="cls-9" d="M206.46,143.43l-12.16,5.44c-.25.11-.52-.07-.52-.34v-10.88c0-.27.28-.45.52-.34l12.16,5.44c.29.13.29.55,0,.68Z"/>
  <path class="cls-9" d="M361.87,143.43l-12.16,5.44c-.25.11-.52-.07-.52-.34v-10.88c0-.27.28-.45.52-.34l12.16,5.44c.29.13.29.55,0,.68Z"/>
  <g>
    <circle class="cls-7" cx="394.49" cy="143.09" r="28.8"/>
    <g>
      <rect class="cls-10" x="371.21" y="129.95" width="15.58" height="5.61"/>
      <g>
        <rect class="cls-10" x="398.66" y="129.95" width="9.04" height="5.61"/>
        <rect class="cls-10" x="408.72" y="129.95" width="9.04" height="5.61"/>
        <rect class="cls-10" x="388.6" y="129.95" width="9.04" height="5.61"/>
      </g>
      <g>
        <rect class="cls-10" x="371.21" y="137.36" width="15.58" height="5.61"/>
        <rect class="cls-10" x="371.21" y="143.99" width="15.58" height="5.61"/>
        <rect class="cls-10" x="371.21" y="150.63" width="15.58" height="5.61"/>
      </g>
      <g>
        <g>
          <rect class="cls-10" x="398.66" y="137.36" width="9.04" height="5.61"/>
          <rect class="cls-10" x="408.72" y="137.36" width="9.04" height="5.61"/>
          <rect class="cls-10" x="388.6" y="137.36" width="9.04" height="5.61"/>
        </g>
        <g>
          <rect class="cls-10" x="398.66" y="150.63" width="9.04" height="5.61"/>
          <rect class="cls-10" x="408.72" y="150.63" width="9.04" height="5.61"/>
          <rect class="cls-10" x="388.6" y="150.63" width="9.04" height="5.61"/>
        </g>
        <g>
          <rect class="cls-10" x="398.66" y="143.99" width="9.04" height="5.61"/>
          <rect class="cls-10" x="408.72" y="143.99" width="9.04" height="5.61"/>
          <rect class="cls-10" x="388.6" y="143.99" width="9.04" height="5.61"/>
        </g>
      </g>
    </g>
  </g>
  <g>
    <circle class="cls-7" cx="161.37" cy="65.39" r="28.8"/>
    <g>
      <rect class="cls-10" x="138.1" y="52.24" width="15.58" height="5.61"/>
      <g>
        <rect class="cls-10" x="165.54" y="52.24" width="9.04" height="5.61"/>
        <rect class="cls-10" x="175.61" y="52.24" width="9.04" height="5.61"/>
        <rect class="cls-10" x="155.48" y="52.24" width="9.04" height="5.61"/>
      </g>
      <g>
        <rect class="cls-10" x="138.1" y="59.65" width="15.58" height="5.61"/>
        <rect class="cls-10" x="138.1" y="66.29" width="15.58" height="5.61"/>
        <rect class="cls-10" x="138.1" y="72.92" width="15.58" height="5.61"/>
      </g>
      <g>
        <g>
          <rect class="cls-10" x="165.54" y="59.65" width="9.04" height="5.61"/>
          <rect class="cls-10" x="175.61" y="59.65" width="9.04" height="5.61"/>
          <rect class="cls-10" x="155.48" y="59.65" width="9.04" height="5.61"/>
        </g>
        <g>
          <rect class="cls-10" x="165.54" y="72.92" width="9.04" height="5.61"/>
          <rect class="cls-10" x="175.61" y="72.92" width="9.04" height="5.61"/>
          <rect class="cls-10" x="155.48" y="72.92" width="9.04" height="5.61"/>
        </g>
        <g>
          <rect class="cls-10" x="165.54" y="66.29" width="9.04" height="5.61"/>
          <rect class="cls-10" x="175.61" y="66.29" width="9.04" height="5.61"/>
          <rect class="cls-10" x="155.48" y="66.29" width="9.04" height="5.61"/>
        </g>
      </g>
    </g>
  </g>
  <path class="cls-9" d="M161.71,175.71l5.44,12.16c.11.25-.07.52-.34.52h-10.88c-.27,0-.45-.28-.34-.52l5.44-12.16c.13-.29.55-.29.68,0Z"/>
  <circle class="cls-7" cx="83.66" cy="143.09" r="28.8"/>
  <polyline class="cls-4" points="61.52 158.22 62.31 159.2 63.11 158.22 63.14 157.33 63.16 159.15 63.76 158.27 63.94 155.85 64 159.28 64.26 156.31 64.5 158.38 64.55 159.05 64.55 154.83 64.72 156.96 64.91 159.51 65.25 158.38 65.33 154.71 65.51 154.96 65.56 157.08 65.7 153.84 65.85 159.37 66.14 158.72 66.19 154.17 66.53 159.29 66.66 157.49 66.71 155.3 66.77 148.85 66.76 158.81 66.92 154.78 67.13 157.59 67.16 150.67 67.13 152.15 67.24 149.44 67.5 159.13 67.61 157.91 67.63 144.75 67.63 154.72 67.78 151.15 67.76 153.57 67.79 156.24 67.89 153.18 67.91 142.71 67.97 141.81 68 155.51 68.15 157.16 68.26 156.16 68.36 150.29 68.41 140.64 68.57 159.06 68.98 155.8 69.02 151.46 68.96 152.49 69.12 141.4 69.07 146.55 69.17 158.28 69.36 156.63 69.4 153.47 69.53 158.06 69.64 156.43 69.77 157.6 69.74 147.23 69.88 155.99 69.9 148.74 69.93 147.53 70.03 144.65 70.03 157.11 70.16 154.75 70.16 157.42 70.35 148.03 70.29 152.46 70.45 149.64 70.5 155.67 70.64 151.51 70.66 147.82 70.82 156.62 70.95 145.66 70.9 150.6 70.92 153.65 71.13 148.96 71.21 149.42 71.23 142.75 71.32 157.97 71.42 157.23 71.47 155.67 71.73 149.97 71.68 151.44 71.7 156.58 71.73 157.38 71.84 158.17 71.94 155.78 71.94 155.89 71.97 153.43 72.07 154.13 72.18 148.41 72.23 136.63 72.2 155.91 72.3 153.8 72.34 148.71 72.36 147.9 72.38 136.75 72.41 133.08 72.44 145.56 72.52 149.42 72.64 140.38 72.6 141.04 72.67 153 72.8 146.87 72.83 153.22 72.96 150.82 72.99 148.34 72.93 153.4 72.96 156.51 73.22 157.08 73.14 152.41 73.33 155.95 73.41 142.57 73.38 149.05 73.48 144.88 73.51 144.06 73.46 150.11 73.48 154.43 73.59 151.69 73.61 147.69 73.67 136.51 73.64 137.64 73.77 155.23 73.9 148.59 74.03 150.2 74.09 156.68 74.21 151.04 74.26 154.46 74.34 156.2 74.37 157.02 74.48 154.31 74.55 154.85 74.63 140.13 74.63 151.33 74.76 144.21 74.79 136.51 74.87 154.9 75 153.39 75.03 150.05 75.02 157.67 75.16 154.28 75.18 149.16 75.45 152.51 75.6 146.08 75.65 148.95 75.73 143.49 75.78 155.73 75.88 156.76 75.91 150.45 75.99 155.51 75.99 156.02 76.15 145.79 76.17 141.09 76.2 125.94 76.15 133.41 76.17 144.33 76.2 152.66 76.46 145.89 76.49 156.21 76.59 152.23 76.61 150.91 76.65 145.35 76.64 155.95 76.78 153.36 76.88 134.3 76.85 141.32 76.88 150.95 77.09 142.78 77.04 148.47 77.06 154.28 77.19 153.61 77.16 154.64 77.3 146.01 77.35 156.73 77.45 151.53 77.48 138.55 77.43 142.07 77.45 146.14 77.48 152.43 77.5 154.27 77.61 153.57 77.64 150.84 77.66 144.5 77.71 155.73 77.82 148.84 77.85 141.89 77.87 157.58 78.08 150.67 78.03 152.26 78.06 155.77 78.24 145.46 78.21 150.71 78.24 155.48 78.35 154.79 78.37 154.01 78.4 146.44 78.42 144.51 78.5 138.53 78.47 146.92 78.58 142.32 78.61 147.83 78.68 156.83 78.81 155.91 78.89 147.23 78.97 148.62 79 142.2 79.13 150.55 79.26 146.11 79.28 132.7 79.31 128.05 79.26 133.08 79.28 142.36 79.31 148.16 79.41 155.67 79.65 146.55 79.68 130.02 79.73 151.61 79.75 154.67 79.86 148.65 79.89 142.42 79.91 157.66 80.07 134.83 80.07 145.38 80.1 149.6 80.12 150.38 80.22 146.23 80.46 153.87 80.48 156.21 80.59 149.94 80.59 153.32 80.61 156.71 80.72 154.5 80.75 149.76 80.77 157.85 80.9 144.2 80.96 141.91 80.96 155.49 81.09 153.21 81.11 151.72 81.22 133.59 81.17 136.99 81.24 153.23 81.38 150.55 81.38 156.25 81.51 146.36 81.45 148.03 81.55 145.96 81.51 150.89 81.58 158.62 81.76 154.81 81.8 143.97 81.82 134.94 81.77 140.92 81.79 153.44 81.82 156.33 81.95 142.8 81.89 146.79 82 145.17 82.05 134.89 82.06 151.43 82.16 150.23 82.21 156.17 82.39 153.08 82.37 156.24 82.44 156.34 82.5 155.41 82.55 155.48 82.71 152.27 82.73 152.77 82.89 145.02 82.84 146.61 82.94 145.84 82.97 156.49 83.1 154.96 83.12 149.9 83.15 137.1 83.18 134.04 83.18 150.05 83.28 157.88 83.39 154.58 83.52 144.79 83.54 132.97 83.49 138.55 83.51 142.21 83.55 145.08 83.67 141.99 83.7 150.31 83.8 145.34 83.88 134.94 83.88 146.68 83.99 145.45 83.96 149.39 84.07 148.26 84.12 136.75 84.17 153.75 84.28 149.46 84.3 150.05 84.33 142.2 84.38 148.27 84.41 153.88 84.51 147.83 84.53 142.31 84.51 151.65 84.64 146.61 84.67 153 84.8 145.26 84.77 152.53 84.79 156.65 84.93 155.74 84.98 154.3 85.03 143.97 85.11 149.67 85.19 156.24 85.29 152.16 85.29 153.33 85.32 146.55 85.4 150.91 85.43 145.52 85.45 138.72 85.5 152.66 85.66 144.21 85.61 146.92 85.69 154.53 85.79 153.69 85.82 149.38 85.82 159.32 86.05 154.92 86 156.38 86.13 147.35 86.08 148.95 86.19 147.21 86.21 134.56 86.23 133.1 86.18 138.79 86.21 146.62 86.32 144.4 86.34 154.71 86.41 154.88 86.52 150.31 86.58 151.88 86.55 144.93 86.68 149.79 86.76 145.39 86.73 154.14 86.86 145.24 86.81 148.03 86.83 154.29 86.87 155.65 86.97 150.09 87.05 132.94 86.99 136.23 87.02 144.15 87.04 149.6 87.18 149.43 87.15 151.44 87.26 150.05 87.28 145.9 87.31 133.64 87.33 146.03 87.44 144.87 87.46 156 87.56 154.87 87.59 156.61 87.73 152.92 87.83 127.76 87.9 155.89 88.04 158.59 88.17 157.8 88.19 155.96 88.27 143.52 88.32 158.57 88.36 159.45 88.56 153.99 88.59 154.89 88.59 150.08 88.74 152.99 88.77 140.75 88.9 156.75 89.01 154.53 89.03 149.8 89.16 158.29 89.3 155.84 89.47 135.82 89.42 142.68 89.52 158.48 89.56 159.11 89.76 156.63 89.79 154.06 89.81 159.24 90.11 159.9 90.29 159.28 90.52 156.81 90.6 151.48 90.63 144.32 90.73 156.71 90.96 154.79 91.02 156.93 91.2 155.51 91.25 153.5 91.3 139.23 91.33 158.35 91.49 154.52 91.6 158.2 91.77 158.84 91.78 155.4 91.91 157.95 91.99 140.93 91.93 146.92 92.01 158.57 92.22 156.61 92.25 158.24 92.41 154.13 92.43 141.89 92.45 136.47 92.4 140.08 92.48 157 92.58 135.07 92.61 129.91 92.71 154.42 92.82 151.22 92.85 146.23 92.84 158.46 92.95 159.15 93.13 157.15 93.19 150.59 93.19 156.29 93.32 146.9 93.34 136.09 93.37 158.4 93.55 156.74 93.71 159.18 94.28 157.26 94.39 129.87 94.33 136.31 94.44 157.26 94.52 158.09 94.54 158.73 94.91 154.07 94.94 150.71 95.02 159.03 95.2 158.27 95.36 151.22 95.72 159.38 96.06 156.94 96.27 155.84 96.48 158.96 96.79 156.9 96.77 157.88 96.92 158.98 97.35 156.29 97.42 134.29 97.36 141.4 97.4 146.72 97.42 153.04 97.52 151.65 97.55 150.62 97.55 158.71 97.71 154.9 97.73 151.48 97.76 158.98 98.1 158.16 98.18 148.41 98.28 151.69 98.34 132.51 98.31 137.99 98.33 145.31 98.47 138.19 98.44 142.31 98.6 158.48 98.8 155.32 98.86 148.4 98.94 158.43 99.2 158.89 99.14 157.47 99.43 158.26 99.46 158.99 100.08 159.53 100.53 158.26 100.82 157.23 100.89 159.44 101.24 158.65 101.34 141.05 101.42 158.54 101.47 159.26 102.12 159.7 102.41 158.91 103.11 159.78 103.2 150.35 103.22 132.22 103.28 124.37"/>
  <g>
    <circle class="cls-6" cx="231.47" cy="143.47" r="4.06"/>
    <circle class="cls-2" cx="231.47" cy="143.47" r="4.06"/>
    <circle class="cls-6" cx="238.57" cy="157.16" r="4.06"/>
    <circle class="cls-2" cx="238.57" cy="157.16" r="4.06"/>
    <circle class="cls-15" cx="253.02" cy="155.9" r="4.06"/>
    <circle class="cls-2" cx="253.02" cy="155.9" r="4.06"/>
    <circle class="cls-11" cx="228.93" cy="129.02" r="4.06"/>
    <circle class="cls-2" cx="228.93" cy="129.02" r="4.06"/>
    <circle class="cls-6" cx="245.41" cy="142.97" r="4.06"/>
    <circle class="cls-2" cx="245.41" cy="142.97" r="4.06"/>
    <ellipse class="cls-6" cx="225.26" cy="137.39" rx="4.18" ry="4.06"/>
    <ellipse class="cls-2" cx="225.26" cy="137.39" rx="4.18" ry="4.06"/>
    <circle class="cls-6" cx="238.32" cy="137.9" r="4.06"/>
    <circle class="cls-2" cx="238.32" cy="137.9" r="4.06"/>
    <circle class="cls-6" cx="245.41" cy="151.33" r="4.06"/>
    <circle class="cls-2" cx="245.41" cy="151.33" r="4.06"/>
    <circle class="cls-6" cx="231.47" cy="151.84" r="4.06"/>
    <circle class="cls-2" cx="231.47" cy="151.84" r="4.06"/>
  </g>
  <g>
    <circle class="cls-7" cx="161.37" cy="220.8" r="28.8"/>
    <g class="cls-20">
      <line class="cls-16" x1="140.23" y1="233.38" x2="182.59" y2="233.38"/>
      <line class="cls-1" x1="143.78" y1="219.2" x2="143.78" y2="233.52"/>
      <line class="cls-5" x1="144.41" y1="230.91" x2="144.41" y2="233.34"/>
      <line class="cls-5" x1="141.97" y1="230.89" x2="141.97" y2="233.32"/>
      <line class="cls-5" x1="141.63" y1="231.45" x2="141.63" y2="233.88"/>
      <line class="cls-5" x1="142.29" y1="231.68" x2="142.29" y2="234.11"/>
      <line class="cls-5" x1="143.81" y1="219.63" x2="143.81" y2="234.6"/>
      <line class="cls-5" x1="148.82" y1="199.41" x2="148.82" y2="234.75"/>
      <line class="cls-5" x1="147.6" y1="220.14" x2="147.6" y2="234.63"/>
      <line class="cls-5" x1="151.16" y1="220.2" x2="151.22" y2="234.63"/>
      <line class="cls-5" x1="153.94" y1="211.65" x2="153.94" y2="234.57"/>
      <line class="cls-5" x1="162.78" y1="199.41" x2="162.78" y2="234.75"/>
      <line class="cls-5" x1="169.77" y1="203.59" x2="169.77" y2="238.94"/>
      <line class="cls-5" x1="166.4" y1="205.21" x2="166.4" y2="240.56"/>
      <line class="cls-5" x1="172.95" y1="204.09" x2="172.96" y2="239.44"/>
      <line class="cls-5" x1="175.95" y1="205.15" x2="175.95" y2="240.5"/>
      <line class="cls-5" x1="178.58" y1="210.59" x2="178.58" y2="245.93"/>
      <line class="cls-5" x1="181.14" y1="220.2" x2="181.14" y2="255.55"/>
      <line class="cls-5" x1="172.52" y1="217.08" x2="172.52" y2="252.43"/>
      <line class="cls-5" x1="158.59" y1="208.96" x2="158.59" y2="244.31"/>
      <line class="cls-5" x1="158.09" y1="216.33" x2="158.09" y2="251.68"/>
      <line class="cls-5" x1="162.34" y1="219.14" x2="162.34" y2="254.49"/>
      <line class="cls-5" x1="161.96" y1="219.89" x2="161.96" y2="255.24"/>
      <line class="cls-5" x1="165.9" y1="212.21" x2="165.9" y2="247.55"/>
      <line class="cls-5" x1="165.59" y1="220.02" x2="165.59" y2="255.36"/>
      <line class="cls-5" x1="178.39" y1="211.4" x2="178.39" y2="246.74"/>
      <line class="cls-5" x1="178.95" y1="211.96" x2="178.95" y2="247.31"/>
      <line class="cls-5" x1="180.82" y1="221.08" x2="180.82" y2="256.42"/>
      <line class="cls-5" x1="168.33" y1="232.25" x2="168.33" y2="267.6"/>
      <line class="cls-5" x1="164.77" y1="232.38" x2="164.77" y2="267.73"/>
      <line class="cls-5" x1="165.27" y1="232.94" x2="165.27" y2="268.29"/>
      <line class="cls-5" x1="154.22" y1="212.15" x2="154.22" y2="247.49"/>
      <line class="cls-5" x1="149.41" y1="216.08" x2="149.41" y2="251.43"/>
      <line class="cls-5" x1="148.35" y1="213.15" x2="148.35" y2="248.49"/>
      <line class="cls-5" x1="146.16" y1="228.76" x2="146.16" y2="264.1"/>
      <line class="cls-5" x1="146.6" y1="229.63" x2="146.6" y2="264.98"/>
      <line class="cls-5" x1="145.85" y1="229.63" x2="145.85" y2="264.98"/>
      <line class="cls-5" x1="140.67" y1="232.38" x2="140.67" y2="267.73"/>
      <line class="cls-5" x1="143.17" y1="232.25" x2="143.17" y2="267.6"/>
      <line class="cls-5" x1="157.03" y1="232.32" x2="157.03" y2="267.66"/>
      <line class="cls-5" x1="156.72" y1="232.94" x2="156.72" y2="268.29"/>
      <line class="cls-5" x1="159.28" y1="231.82" x2="159.28" y2="267.16"/>
      <line class="cls-5" x1="159.59" y1="232.44" x2="159.59" y2="267.79"/>
      <line class="cls-5" x1="151.97" y1="229.76" x2="151.97" y2="265.1"/>
      <line class="cls-5" x1="152.41" y1="230.69" x2="152.41" y2="266.04"/>
      <line class="cls-5" x1="150.72" y1="231.82" x2="150.72" y2="267.16"/>
      <line class="cls-5" x1="147.23" y1="221.33" x2="147.23" y2="256.67"/>
      <line class="cls-5" x1="170.14" y1="207.84" x2="170.14" y2="243.18"/>
      <line class="cls-5" x1="173.45" y1="219.14" x2="173.45" y2="254.49"/>
      <line class="cls-5" x1="172.14" y1="225.45" x2="172.14" y2="260.79"/>
      <line class="cls-5" x1="175.33" y1="229.26" x2="175.33" y2="264.6"/>
      <line class="cls-5" x1="176.26" y1="221.2" x2="176.26" y2="256.55"/>
      <line class="cls-5" x1="181.51" y1="221.89" x2="181.51" y2="257.23"/>
      <line class="cls-5" x1="179.89" y1="232.94" x2="179.89" y2="268.29"/>
      <line class="cls-5" x1="177.39" y1="232.94" x2="177.39" y2="268.29"/>
      <line class="cls-5" x1="174.45" y1="233" x2="174.45" y2="268.35"/>
      <line class="cls-5" x1="155.22" y1="233" x2="155.22" y2="268.35"/>
      <line class="cls-5" x1="144.79" y1="232.38" x2="144.79" y2="267.73"/>
      <line class="cls-3" x1="139.91" y1="234.25" x2="182.56" y2="234.25"/>
    </g>
  </g>
  <text class="cls-14" transform="translate(145.16 138.09)"><tspan x="0" y="0">Core</tspan><tspan x="4.98" y="18">MS</tspan></text>
  <text class="cls-13" transform="translate(291.87 125.46)"><tspan class="cls-18"><tspan x="0" y="0">Molecular</tspan></tspan><tspan class="cls-17"><tspan x="3.81" y="13.8">Formula</tspan></tspan><tspan class="cls-18"><tspan x="9.86" y="27.6">Score</tspan></tspan><tspan class="cls-18"><tspan x="6.37" y="41.4">Control</tspan></tspan></text>
  <text class="cls-12" transform="translate(37.99 31.68)"><tspan x="0" y="0">Molecular Formula Reference Database</tspan></text>
  <text class="cls-12" transform="translate(74.76 262.83)"><tspan x="0" y="0">Calibration Reference Table</tspan></text>
  <text class="cls-12" transform="translate(23.35 185.13)"><tspan x="0" y="0">Raw Direct Infusion</tspan><tspan x="8.47" y="16.8">FT-ICR MS Data</tspan></text>
  <text class="cls-12" transform="translate(210.85 185.13)"><tspan x="0" y="0">Identified</tspan><tspan x="-1.96" y="16.8">Molecular</tspan><tspan x="-.8" y="33.6">Formulas</tspan></text>
  <text class="cls-12" transform="translate(364.31 185.13)"><tspan x="0" y="0">Molecular</tspan><tspan x="4.63" y="16.8">Formula</tspan><tspan x="-3.88" y="33.6">Data Table</tspan></text>
  <g>
    <path class="cls-9" d="M154.1,110.47l5.44-12.16c.11-.25-.07-.52-.34-.52h-10.88c-.27,0-.45.28-.34.52l5.44,12.16c.13.29.55.29.68,0Z"/>
    <path class="cls-9" d="M169.32,98.01l5.44,12.16c.11.25-.07.52-.34.52h-10.88c-.27,0-.45-.28-.34-.52l5.44-12.16c.13-.29.55-.29.68,0Z"/>
  </g>
</svg>